<svg xmlns="http://www.w3.org/2000/svg" xmlns:xlink="http://www.w3.org/1999/xlink" width="500" zoomAndPan="magnify" viewBox="0 0 375 374.999991" height="500" preserveAspectRatio="xMidYMid meet" version="1.0"><defs><g/></defs><g fill="#ffffff" fill-opacity="1"><g transform="translate(129.574393, 271.775739)"><g><path d="M 97.234375 -107.0625 C 94.296875 -103.945312 90.941406 -101.65625 87.171875 -100.1875 C 103.210938 -97.894531 115.40625 -92.203125 123.75 -83.109375 C 132.101562 -74.023438 136.28125 -62.9375 136.28125 -49.84375 C 136.28125 -33.96875 129.894531 -21.117188 117.125 -11.296875 C 104.363281 -1.472656 87.585938 3.4375 66.796875 3.4375 C 46.003906 3.4375 29.710938 -1.675781 17.921875 -11.90625 C 6.140625 -22.132812 0.25 -36.582031 0.25 -55.25 C 0.25 -56.226562 0.25 -57.207031 0.25 -58.1875 L 2.953125 -58.6875 C 6.222656 -34.289062 16.375 -18.492188 33.40625 -11.296875 L 33.40625 -154.203125 C 33.070312 -158.617188 31.390625 -162.257812 28.359375 -165.125 C 25.335938 -167.988281 21.695312 -169.421875 17.4375 -169.421875 L 14.484375 -169.421875 L 14.484375 -171.875 L 55.75 -171.875 C 71.132812 -171.875 83.453125 -168.351562 92.703125 -161.3125 C 101.953125 -154.28125 106.578125 -145.078125 106.578125 -133.703125 C 106.578125 -122.328125 103.460938 -113.445312 97.234375 -107.0625 Z M 49.359375 -164.03125 L 49.359375 -6.875 C 54.765625 -6.050781 60.984375 -5.640625 68.015625 -5.640625 C 83.734375 -5.640625 95.96875 -9.851562 104.71875 -18.28125 C 113.476562 -26.71875 117.859375 -37.648438 117.859375 -51.078125 C 117.859375 -58.273438 116.507812 -64.65625 113.8125 -70.21875 C 111.113281 -75.789062 107.71875 -80.128906 103.625 -83.234375 C 92.820312 -91.585938 77.597656 -95.765625 57.953125 -95.765625 C 57.785156 -95.765625 57.703125 -95.765625 57.703125 -95.765625 L 57.46875 -97.96875 C 57.625 -97.96875 57.703125 -97.96875 57.703125 -97.96875 C 66.054688 -97.96875 73.21875 -100.707031 79.1875 -106.1875 C 85.164062 -111.675781 88.15625 -120.148438 88.15625 -131.609375 C 88.15625 -153.222656 76.285156 -164.03125 52.546875 -164.03125 Z M 49.359375 -164.03125 "/></g></g></g><g fill="#ffffff" fill-opacity="1"><g transform="translate(31.810007, 211.184308)"><g><path d="M 195.703125 -86.1875 C 195.703125 -58.03125 188.128906 -36.050781 172.984375 -20.25 C 157.847656 -4.457031 136.445312 3.4375 108.78125 3.4375 C 90.113281 3.4375 73.289062 -0.488281 58.3125 -8.34375 C 43.332031 -16.207031 31.707031 -26.929688 23.4375 -40.515625 C 15.175781 -54.097656 11.046875 -69.28125 11.046875 -86.0625 C 11.046875 -102.84375 15.140625 -118.023438 23.328125 -131.609375 C 31.515625 -145.203125 42.8125 -155.882812 57.21875 -163.65625 C 71.625 -171.4375 87.664062 -175.328125 105.34375 -175.328125 C 116.46875 -175.328125 127.800781 -173.8125 139.34375 -170.78125 C 150.882812 -167.75 160.503906 -163.695312 168.203125 -158.625 L 173.109375 -124 L 170.90625 -124 C 167.46875 -137.75 159.523438 -148.507812 147.078125 -156.28125 C 134.640625 -164.0625 120.804688 -167.953125 105.578125 -167.953125 C 83.804688 -167.953125 65.675781 -160.21875 51.1875 -144.75 C 36.707031 -129.28125 29.46875 -109.835938 29.46875 -86.421875 C 29.46875 -63.015625 36.957031 -43.410156 51.9375 -27.609375 C 66.914062 -11.816406 86.515625 -3.921875 110.734375 -3.921875 C 134.960938 -3.921875 154.726562 -11.78125 170.03125 -27.5 C 185.34375 -43.21875 193 -64.742188 193 -92.078125 L 195.453125 -92.078125 C 195.617188 -90.117188 195.703125 -88.15625 195.703125 -86.1875 Z M 195.703125 -86.1875 "/></g></g></g><g fill="#ffffff" fill-opacity="1"><g transform="translate(150.655118, 338.805718)"><g><path d="M 195.703125 -86.1875 C 195.703125 -58.03125 188.128906 -36.050781 172.984375 -20.25 C 157.847656 -4.457031 136.445312 3.4375 108.78125 3.4375 C 90.113281 3.4375 73.289062 -0.488281 58.3125 -8.34375 C 43.332031 -16.207031 31.707031 -26.929688 23.4375 -40.515625 C 15.175781 -54.097656 11.046875 -69.28125 11.046875 -86.0625 C 11.046875 -102.84375 15.140625 -118.023438 23.328125 -131.609375 C 31.515625 -145.203125 42.8125 -155.882812 57.21875 -163.65625 C 71.625 -171.4375 87.664062 -175.328125 105.34375 -175.328125 C 116.46875 -175.328125 127.800781 -173.8125 139.34375 -170.78125 C 150.882812 -167.75 160.503906 -163.695312 168.203125 -158.625 L 173.109375 -124 L 170.90625 -124 C 167.46875 -137.75 159.523438 -148.507812 147.078125 -156.28125 C 134.640625 -164.0625 120.804688 -167.953125 105.578125 -167.953125 C 83.804688 -167.953125 65.675781 -160.21875 51.1875 -144.75 C 36.707031 -129.28125 29.46875 -109.835938 29.46875 -86.421875 C 29.46875 -63.015625 36.957031 -43.410156 51.9375 -27.609375 C 66.914062 -11.816406 86.515625 -3.921875 110.734375 -3.921875 C 134.960938 -3.921875 154.726562 -11.78125 170.03125 -27.5 C 185.34375 -43.21875 193 -64.742188 193 -92.078125 L 195.453125 -92.078125 C 195.617188 -90.117188 195.703125 -88.15625 195.703125 -86.1875 Z M 195.703125 -86.1875 "/></g></g></g></svg>